# Blender 3.4.1
# www.blender.org
mtllib areaAsociacion.mtl
o NurbsCurve
v -0.750000 0.000000 -0.833333
v -0.713685 0.000000 -0.847211
v -0.676216 0.000000 -0.860272
v -0.637662 0.000000 -0.872517
v -0.598093 0.000000 -0.883946
v -0.557580 0.000000 -0.894558
v -0.516192 0.000000 -0.904354
v -0.474000 0.000000 -0.913333
v -0.431073 0.000000 -0.921497
v -0.387481 0.000000 -0.928844
v -0.343294 0.000000 -0.935374
v -0.298583 0.000000 -0.941088
v -0.253417 0.000000 -0.945986
v -0.207866 0.000000 -0.950068
v -0.162000 0.000000 -0.953333
v -0.115889 0.000000 -0.955782
v -0.069604 0.000000 -0.957415
v -0.023213 0.000000 -0.958231
v 0.023213 0.000000 -0.958231
v 0.069604 0.000000 -0.957415
v 0.115889 0.000000 -0.955782
v 0.162000 0.000000 -0.953333
v 0.207866 0.000000 -0.950068
v 0.253417 0.000000 -0.945986
v 0.298583 0.000000 -0.941089
v 0.343295 0.000000 -0.935374
v 0.387481 0.000000 -0.928844
v 0.431073 0.000000 -0.921497
v 0.474000 0.000000 -0.913333
v 0.516192 0.000000 -0.904354
v 0.557580 0.000000 -0.894558
v 0.598093 0.000000 -0.883946
v 0.637662 0.000000 -0.872517
v 0.676216 0.000000 -0.860272
v 0.713685 0.000000 -0.847211
v 0.750000 0.000000 -0.833333
l 1 2
l 2 3
l 3 4
l 4 5
l 5 6
l 6 7
l 7 8
l 8 9
l 9 10
l 10 11
l 11 12
l 12 13
l 13 14
l 14 15
l 15 16
l 16 17
l 17 18
l 18 19
l 19 20
l 20 21
l 21 22
l 22 23
l 23 24
l 24 25
l 25 26
l 26 27
l 27 28
l 28 29
l 29 30
l 30 31
l 31 32
l 32 33
l 33 34
l 34 35
l 35 36
o Sphere
v 0.874835 3.731668 0.763797
v 0.974933 3.641006 0.694334
v 1.069412 3.529599 0.637592
v 1.154642 3.401728 0.595754
v 1.227346 3.262308 0.570427
v 1.284731 3.116696 0.562584
v 1.324591 2.970488 0.572526
v 1.345396 2.829303 0.599872
v 1.346344 2.698566 0.643570
v 1.327401 2.583302 0.701942
v 1.289293 2.487939 0.772744
v 0.845206 3.854322 0.905970
v 0.960140 3.765338 0.845675
v 1.070757 3.676593 0.785416
v 1.168915 3.563643 0.736086
v 1.258371 3.437907 0.694366
v 1.332315 3.300034 0.664653
v 1.379761 3.149612 0.654334
v 1.410267 2.999078 0.654906
v 1.416350 2.854205 0.671307
v 1.402709 2.717850 0.699363
v 1.366225 2.596585 0.740372
v 1.309086 2.494711 0.792335
v 0.773663 3.904329 1.048404
v 0.905144 3.888497 0.984920
v 1.038633 3.817422 0.929552
v 1.161124 3.716016 0.881157
v 1.252682 3.585571 0.846717
v 1.351313 3.465670 0.801602
v 1.437111 3.337658 0.761100
v 1.478585 3.180533 0.747570
v 1.501446 3.015252 0.738955
v 1.465933 2.874563 0.764290
v 1.452415 2.729286 0.761802
v 1.398764 2.604937 0.783644
v 1.325674 2.498969 0.814395
v 0.810844 3.910898 1.118656
v 0.953185 3.889145 1.076690
v 1.113272 3.880790 1.026056
v 1.238748 3.752238 0.988688
v 1.323586 3.601468 0.962573
v 1.419922 3.477241 0.922178
v 1.532956 3.367974 0.866396
v 1.609027 3.218493 0.836523
v 1.577781 3.026789 0.857377
v 1.563323 2.864185 0.841826
v 1.509921 2.725646 0.824037
v 1.424730 2.607650 0.830009
v 1.338420 2.500550 0.838075
v 0.836727 3.893184 1.187958
v 0.991222 3.875701 1.167583
v 1.153091 3.874420 1.131076
v 1.268772 3.751251 1.110900
v 1.360608 3.589757 1.087902
v 1.444345 3.455699 1.052659
v 1.542502 3.338411 0.988924
v 1.628380 3.210423 0.949681
v 1.663012 3.016051 0.948209
v 1.652194 2.836654 0.910684
v 1.580177 2.701154 0.884545
v 1.444204 2.604193 0.877605
v 1.346836 2.499394 0.862466
v 0.847971 3.865574 1.254982
v 1.006911 3.856422 1.255942
v 1.164835 3.837698 1.240498
v 1.259898 3.708666 1.231679
v 1.379167 3.569156 1.211261
v 1.439368 3.418527 1.174733
v 1.533941 3.295426 1.124269
v 1.567040 3.145614 1.060637
v 1.624057 2.974530 1.040169
v 1.666983 2.829842 0.991058
v 1.602558 2.688188 0.956947
v 1.453600 2.595792 0.924941
v 1.350596 2.495543 0.886630
v 0.844902 3.841412 1.319827
v 1.000465 3.827568 1.343799
v 1.180202 3.830044 1.369029
v 1.301182 3.714033 1.371898
v 1.400662 3.563385 1.347525
v 1.448652 3.400204 1.302991
v 1.513023 3.229107 1.267955
v 1.509085 3.068477 1.244270
v 1.637504 2.962474 1.182570
v 1.633332 2.822236 1.092682
v 1.557653 2.700379 1.029715
v 1.450583 2.583607 0.970208
v 1.349557 2.489148 0.909638
v 0.828834 3.818382 1.380940
v 0.979812 3.796610 1.433757
v 1.161876 3.758344 1.503012
v 1.258040 3.646545 1.493523
v 1.369488 3.526385 1.458000
v 1.439973 3.364092 1.415260
v 1.579620 3.196986 1.407526
v 1.614280 3.060387 1.381297
v 1.684524 2.964334 1.302732
v 1.605514 2.779544 1.196163
v 1.513012 2.680053 1.098236
v 1.436279 2.567740 1.011517
v 1.343758 2.480453 0.930607
v 0.799626 3.788904 1.433254
v 0.941867 3.757988 1.506088
v 1.115575 3.685598 1.570392
v 1.244751 3.627480 1.645446
v 1.310937 3.454463 1.547847
v 1.411267 3.302461 1.510420
v 1.520503 3.146505 1.521110
v 1.619800 3.036750 1.465023
v 1.623083 2.889826 1.387579
v 1.579745 2.704641 1.275714
v 1.490781 2.627494 1.155549
v 1.414071 2.547657 1.047145
v 1.333423 2.469792 0.948730
v 0.758078 3.752822 1.473747
v 0.883855 3.699286 1.544648
v 1.017826 3.631113 1.615419
v 1.131957 3.516889 1.636965
v 1.220434 3.377900 1.599276
v 1.332093 3.242855 1.601992
v 1.405121 3.048104 1.552298
v 1.554771 2.941136 1.580269
v 1.554938 2.811158 1.467112
v 1.532424 2.649785 1.330301
v 1.452697 2.584352 1.196416
v 1.385572 2.523741 1.075754
v 1.318949 2.457576 0.963311
v 0.815304 3.641028 1.572964
v 0.924598 3.546632 1.622118
v 1.029927 3.434439 1.646765
v 1.127784 3.310060 1.648420
v 1.243210 3.172397 1.668064
v 1.363971 3.021777 1.685386
v 1.444506 2.873509 1.640703
v 1.456283 2.751063 1.511901
v 1.425264 2.634067 1.352291
v 1.391154 2.556717 1.222073
v 1.350225 2.497538 1.096346
v 1.300891 2.444273 0.973790
v 0.834989 3.486415 1.646113
v 0.930659 3.368495 1.674710
v 1.022430 3.240295 1.678392
v 1.119722 3.102087 1.679892
v 1.225877 2.955246 1.685540
v 1.299025 2.817147 1.626807
v 1.320210 2.706704 1.496111
v 1.320528 2.611045 1.356452
v 1.325033 2.526707 1.235825
v 1.309071 2.470411 1.108032
v 1.279944 2.430395 0.979764
v 0.821591 3.302576 1.680579
v 0.906625 3.170323 1.684585
v 0.989685 3.034964 1.665282
v 1.072180 2.899390 1.631439
v 1.140627 2.773145 1.563536
v 1.189638 2.664068 1.464067
v 1.228038 2.570272 1.354714
v 1.254823 2.494041 1.236985
v 1.263884 2.443119 1.110458
v 1.256913 2.416475 0.981003
v 1.216355 2.416782 1.103508
v 1.232682 2.403048 0.977460
v 1.233486 2.416144 0.853254
v 1.264801 2.796592 0.540537
v 1.283022 2.672865 0.596951
v 1.283783 2.565598 0.669830
v 1.267057 2.478914 0.756373
vn 0.6428 -0.3283 -0.6921
vn 0.6369 -0.2402 -0.7326
vn 0.6945 -0.1593 -0.7016
vn 0.6836 -0.3162 -0.6578
vn 0.6336 -0.5167 -0.5758
vn 0.6621 -0.5088 -0.5503
vn 0.5875 -0.6946 -0.4151
vn 0.6024 -0.6902 -0.4009
vn 0.5610 -0.8059 -0.1893
vn 0.6873 0.0502 -0.7246
vn 0.6359 0.1989 -0.7457
vn 0.6378 0.1915 -0.7460
vn 0.7091 0.0218 -0.7047
vn 0.7699 -0.1352 -0.6237
vn 0.7700 -0.2827 -0.5720
vn 0.3415 0.7026 -0.6243
vn 0.2778 0.7554 -0.5934
vn 0.2633 0.7478 -0.6094
vn 0.3733 0.6843 -0.6264
vn 0.7109 -0.4993 -0.4953
vn 0.4378 0.6009 -0.6688
vn 0.4813 0.6071 -0.6323
vn 0.6297 -0.6836 -0.3690
vn 0.5026 0.4901 -0.7122
vn 0.5211 0.5253 -0.6727
vn 0.5691 0.3458 -0.7460
vn 0.5760 0.3594 -0.7342
vn 0.7219 -0.5142 -0.4631
vn 0.6499 -0.6829 -0.3335
vn 0.5813 0.6019 -0.5475
vn 0.5610 0.6103 -0.5592
vn 0.5731 0.4397 -0.6916
vn 0.6445 0.1636 -0.7469
vn 0.7289 -0.0474 -0.6830
vn 0.7614 -0.1363 -0.6338
vn 0.2200 0.7722 -0.5961
vn 0.1512 0.9083 -0.3901
vn 0.2661 0.7743 -0.5742
vn 0.7577 -0.2682 -0.5949
vn 0.4713 0.6344 -0.6127
vn 0.0989 0.9904 -0.0961
vn 0.1287 0.9915 0.0169
vn 0.1052 0.9915 -0.0764
vn 0.7672 -0.0309 -0.6407
vn 0.6737 -0.0782 -0.7348
vn 0.3607 0.8749 -0.3230
vn 0.6438 -0.3102 -0.6995
vn 0.6627 0.6223 -0.4165
vn 0.6782 -0.5645 -0.4705
vn 0.7415 0.5801 -0.3372
vn 0.6605 -0.6884 -0.2997
vn 0.6953 0.6664 -0.2694
vn 0.7195 0.5773 -0.3861
vn 0.8113 0.2363 -0.5347
vn 0.8468 0.5307 -0.0346
vn 0.8235 0.5649 0.0528
vn 0.6641 -0.7018 -0.2578
vn 0.8464 0.5129 0.1433
vn 0.9667 0.2537 0.0325
vn 0.9872 0.0953 -0.1276
vn 0.1274 0.9712 0.2012
vn 0.1020 0.9770 0.1873
vn 0.8795 -0.1072 -0.4637
vn 0.4644 0.8830 0.0684
vn 0.6992 -0.4697 -0.5390
vn 0.7936 0.6078 -0.0266
vn 0.6451 -0.6636 -0.3788
vn 0.9462 0.2127 0.2440
vn 0.9765 -0.1966 0.0881
vn 0.0707 0.9655 0.2505
vn 0.4775 0.8685 0.1334
vn 0.7603 -0.6495 0.0103
vn 0.7851 0.6193 -0.0133
vn 0.6537 -0.7498 -0.1022
vn 0.8693 0.4935 -0.0275
vn 0.6626 -0.7220 -0.1992
vn 0.8931 0.4408 0.0902
vn 0.9107 0.3269 0.2524
vn 0.9038 0.2312 0.3600
vn 0.0695 0.9507 0.3024
vn 0.6551 -0.7431 -0.1368
vn 0.9159 0.3944 0.0746
vn 0.9541 0.2980 -0.0303
vn 0.8922 0.4248 -0.1536
vn 0.9490 0.3140 -0.0278
vn 0.0329 0.9413 0.3360
vn 0.0216 0.9482 0.3170
vn 0.9469 -0.3007 0.1140
vn 0.4291 0.8765 0.2183
vn 0.7119 -0.6691 0.2133
vn 0.7669 0.6219 0.1585
vn 0.6857 -0.7255 0.0593
vn 0.8847 0.4514 0.1161
vn 0.8978 -0.4395 -0.0262
vn 0.7840 -0.6206 -0.0122
vn 0.3127 0.7932 0.5225
vn 0.6982 0.5564 0.4504
vn 0.7376 -0.6751 0.0131
vn 0.8365 0.3532 0.4189
vn 0.6441 -0.7599 -0.0876
vn 0.8493 0.4134 0.3283
vn 0.9065 0.4173 0.0640
vn 0.9327 0.3606 0.0002
vn 0.9679 0.2460 -0.0507
vn -0.0075 0.9154 0.4026
vn -0.0072 0.8848 0.4659
vn 0.5823 0.3287 0.7436
vn 0.8366 0.1440 0.5285
vn 0.9191 -0.2530 0.3021
vn -0.0907 0.8101 0.5792
vn -0.0529 0.7583 0.6498
vn 0.8504 -0.5226 0.0614
vn 0.0929 0.6673 0.7390
vn 0.7647 -0.6364 -0.1011
vn 0.4435 0.3404 0.8291
vn 0.7249 -0.6887 -0.0099
vn 0.6685 0.1765 0.7225
vn 0.6298 -0.7750 -0.0529
vn 0.6149 0.3203 0.7206
vn -0.0930 0.3951 0.9139
vn 0.1315 0.0816 0.9880
vn 0.5789 -0.8074 0.1139
vn 0.6376 -0.7671 0.0709
vn 0.3693 0.1090 0.9229
vn 0.6066 -0.7947 -0.0220
vn 0.4890 0.2675 0.8303
vn 0.5386 0.3252 0.7773
vn 0.6948 -0.0198 0.7189
vn 0.7288 -0.4834 0.4850
vn -0.1403 0.7169 0.6829
vn -0.1218 0.5881 0.7996
vn 0.6227 -0.7094 0.3302
vn 0.3495 0.1235 0.9288
vn 0.4169 -0.3006 0.8578
vn 0.3716 -0.6969 0.6134
vn 0.3166 -0.8079 0.4971
vn -0.1678 0.4101 0.8964
vn -0.0471 0.2833 0.9579
vn 0.4137 -0.8493 0.3278
vn 0.1153 0.1590 0.9805
vn 0.5581 -0.8135 0.1635
vn 0.2093 0.1709 0.9628
vn 0.5737 -0.8191 0.0067
vn 0.2879 0.2312 0.9293
vn 0.3950 -0.8142 0.4256
vn 0.5078 -0.8317 0.2247
vn 0.0911 0.1579 0.9832
vn 0.0716 0.0678 0.9951
vn 0.5369 -0.8432 0.0276
vn -0.0186 -0.0158 0.9997
vn -0.0565 -0.2361 0.9701
vn 0.0277 -0.5643 0.8251
vn 0.1344 -0.7593 0.6367
vn 0.2566 -0.7897 0.5572
vn 0.0727 0.2847 0.9559
vn -0.0875 -0.6179 0.7814
vn 0.0929 -0.7502 0.6546
vn 0.2634 -0.7649 0.5879
vn 0.3902 -0.7980 0.4593
vn 0.4743 -0.8524 0.2203
vn 0.0254 0.0467 0.9986
vn 0.0132 -0.0100 0.9999
vn 0.4990 -0.8657 0.0391
vn -0.0738 -0.1304 0.9887
vn -0.1577 -0.3468 0.9246
vn 0.4614 -0.8736 0.1549
vn 0.4795 -0.8765 0.0426
vt 0.718750 0.687500
vt 0.718750 0.625000
vt 0.718750 0.562500
vt 0.718750 0.500000
vt 0.718750 0.437500
vt 0.718750 0.375000
vt 0.718750 0.312500
vt 0.718750 0.250000
vt 0.718750 0.187500
vt 0.718750 0.125000
vt 0.718750 0.062500
vt 0.687500 0.750000
vt 0.687500 0.687500
vt 0.687500 0.625000
vt 0.687500 0.562500
vt 0.687500 0.500000
vt 0.687500 0.437500
vt 0.687500 0.375000
vt 0.687500 0.312500
vt 0.687500 0.250000
vt 0.687500 0.187500
vt 0.687500 0.125000
vt 0.687500 0.062500
vt 0.656250 0.812500
vt 0.656250 0.750000
vt 0.656250 0.687500
vt 0.656250 0.625000
vt 0.656250 0.562500
vt 0.656250 0.500000
vt 0.656250 0.437500
vt 0.656250 0.375000
vt 0.656250 0.312500
vt 0.656250 0.250000
vt 0.656250 0.187500
vt 0.656250 0.125000
vt 0.656250 0.062500
vt 0.625000 0.812500
vt 0.625000 0.750000
vt 0.625000 0.687500
vt 0.625000 0.625000
vt 0.625000 0.562500
vt 0.625000 0.500000
vt 0.625000 0.437500
vt 0.625000 0.375000
vt 0.625000 0.312500
vt 0.625000 0.250000
vt 0.625000 0.187500
vt 0.625000 0.125000
vt 0.625000 0.062500
vt 0.593750 0.812500
vt 0.593750 0.750000
vt 0.593750 0.687500
vt 0.593750 0.625000
vt 0.593750 0.562500
vt 0.593750 0.500000
vt 0.593750 0.437500
vt 0.593750 0.375000
vt 0.593750 0.312500
vt 0.593750 0.250000
vt 0.593750 0.187500
vt 0.593750 0.125000
vt 0.593750 0.062500
vt 0.562500 0.812500
vt 0.562500 0.750000
vt 0.562500 0.687500
vt 0.562500 0.625000
vt 0.562500 0.562500
vt 0.562500 0.500000
vt 0.562500 0.437500
vt 0.562500 0.375000
vt 0.562500 0.312500
vt 0.562500 0.250000
vt 0.562500 0.187500
vt 0.562500 0.125000
vt 0.562500 0.062500
vt 0.531250 0.812500
vt 0.531250 0.750000
vt 0.531250 0.687500
vt 0.531250 0.625000
vt 0.531250 0.562500
vt 0.531250 0.500000
vt 0.531250 0.437500
vt 0.531250 0.375000
vt 0.531250 0.312500
vt 0.531250 0.250000
vt 0.531250 0.187500
vt 0.531250 0.125000
vt 0.531250 0.062500
vt 0.500000 0.812500
vt 0.500000 0.750000
vt 0.500000 0.687500
vt 0.500000 0.625000
vt 0.500000 0.562500
vt 0.500000 0.500000
vt 0.500000 0.437500
vt 0.500000 0.375000
vt 0.500000 0.312500
vt 0.500000 0.250000
vt 0.500000 0.187500
vt 0.500000 0.125000
vt 0.500000 0.062500
vt 0.468750 0.812500
vt 0.468750 0.750000
vt 0.468750 0.687500
vt 0.468750 0.625000
vt 0.468750 0.562500
vt 0.468750 0.500000
vt 0.468750 0.437500
vt 0.468750 0.375000
vt 0.468750 0.312500
vt 0.468750 0.250000
vt 0.468750 0.187500
vt 0.468750 0.125000
vt 0.468750 0.062500
vt 0.437500 0.812500
vt 0.437500 0.750000
vt 0.437500 0.687500
vt 0.437500 0.625000
vt 0.437500 0.562500
vt 0.437500 0.500000
vt 0.437500 0.437500
vt 0.437500 0.375000
vt 0.437500 0.312500
vt 0.437500 0.250000
vt 0.437500 0.187500
vt 0.437500 0.125000
vt 0.437500 0.062500
vt 0.406250 0.750000
vt 0.406250 0.687500
vt 0.406250 0.625000
vt 0.406250 0.562500
vt 0.406250 0.500000
vt 0.406250 0.437500
vt 0.406250 0.375000
vt 0.406250 0.312500
vt 0.406250 0.250000
vt 0.406250 0.187500
vt 0.406250 0.125000
vt 0.406250 0.062500
vt 0.375000 0.687500
vt 0.375000 0.625000
vt 0.375000 0.562500
vt 0.375000 0.500000
vt 0.375000 0.437500
vt 0.375000 0.375000
vt 0.375000 0.312500
vt 0.375000 0.250000
vt 0.375000 0.187500
vt 0.375000 0.125000
vt 0.375000 0.062500
vt 0.343750 0.625000
vt 0.343750 0.562500
vt 0.343750 0.500000
vt 0.343750 0.437500
vt 0.343750 0.375000
vt 0.343750 0.312500
vt 0.343750 0.250000
vt 0.343750 0.187500
vt 0.343750 0.125000
vt 0.343750 0.062500
vt 0.312500 0.125000
vt 0.312500 0.062500
vt 0.734375 0.000000
vt 0.703125 0.000000
vt 0.671875 0.000000
vt 0.640625 0.000000
vt 0.609375 0.000000
vt 0.578125 0.000000
vt 0.546875 0.000000
vt 0.515625 0.000000
vt 0.484375 0.000000
vt 0.453125 0.000000
vt 0.421875 0.000000
vt 0.390625 0.000000
vt 0.359375 0.000000
vt 0.328125 0.000000
vt 0.750000 0.250000
vt 0.750000 0.187500
vt 0.750000 0.125000
vt 0.750000 0.062500
s 1
f 201/178/1 200/177/2 44/8/3 45/9/4
f 202/179/5 201/178/1 45/9/4 46/10/6
f 203/180/7 202/179/5 46/10/6 47/11/8
f 199/163/9 203/180/7 47/11/8
f 43/7/10 42/6/11 54/18/12 55/19/13
f 44/8/3 43/7/10 55/19/13 56/20/14
f 45/9/4 44/8/3 56/20/14 57/21/15
f 38/2/16 37/1/17 49/13/18 50/14/19
f 46/10/6 45/9/4 57/21/15 58/22/20
f 39/3/21 38/2/16 50/14/19 51/15/22
f 47/11/8 46/10/6 58/22/20 59/23/23
f 40/4/24 39/3/21 51/15/22 52/16/25
f 199/164/9 47/11/8 59/23/23
f 41/5/26 40/4/24 52/16/25 53/17/27
f 42/6/11 41/5/26 53/17/27 54/18/12
f 59/23/23 58/22/20 71/35/28 72/36/29
f 52/16/25 51/15/22 64/28/30 65/29/31
f 199/165/9 59/23/23 72/36/29
f 53/17/27 52/16/25 65/29/31 66/30/32
f 54/18/12 53/17/27 66/30/32 67/31/33
f 55/19/13 54/18/12 67/31/33 68/32/34
f 56/20/14 55/19/13 68/32/34 69/33/35
f 49/13/18 48/12/36 61/25/37 62/26/38
f 57/21/15 56/20/14 69/33/35 70/34/39
f 50/14/19 49/13/18 62/26/38 63/27/40
f 58/22/20 57/21/15 70/34/39 71/35/28
f 51/15/22 50/14/19 63/27/40 64/28/30
f 61/25/37 60/24/41 73/37/42 74/38/43
f 69/33/35 68/32/34 81/45/44 82/46/45
f 62/26/38 61/25/37 74/38/43 75/39/46
f 70/34/39 69/33/35 82/46/45 83/47/47
f 63/27/40 62/26/38 75/39/46 76/40/48
f 71/35/28 70/34/39 83/47/47 84/48/49
f 64/28/30 63/27/40 76/40/48 77/41/50
f 72/36/29 71/35/28 84/48/49 85/49/51
f 65/29/31 64/28/30 77/41/50 78/42/52
f 199/166/9 72/36/29 85/49/51
f 66/30/32 65/29/31 78/42/52 79/43/53
f 67/31/33 66/30/32 79/43/53 80/44/54
f 68/32/34 67/31/33 80/44/54 81/45/44
f 78/42/52 77/41/50 90/54/55 91/55/56
f 199/167/9 85/49/51 98/62/57
f 79/43/53 78/42/52 91/55/56 92/56/58
f 80/44/54 79/43/53 92/56/58 93/57/59
f 81/45/44 80/44/54 93/57/59 94/58/60
f 74/38/43 73/37/42 86/50/61 87/51/62
f 82/46/45 81/45/44 94/58/60 95/59/63
f 75/39/46 74/38/43 87/51/62 88/52/64
f 83/47/47 82/46/45 95/59/63 96/60/65
f 76/40/48 75/39/46 88/52/64 89/53/66
f 84/48/49 83/47/47 96/60/65 97/61/67
f 77/41/50 76/40/48 89/53/66 90/54/55
f 85/49/51 84/48/49 97/61/67 98/62/57
f 95/59/63 94/58/60 107/71/68 108/72/69
f 88/52/64 87/51/62 100/64/70 101/65/71
f 96/60/65 95/59/63 108/72/69 109/73/72
f 89/53/66 88/52/64 101/65/71 102/66/73
f 97/61/67 96/60/65 109/73/72 110/74/74
f 90/54/55 89/53/66 102/66/73 103/67/75
f 98/62/57 97/61/67 110/74/74 111/75/76
f 91/55/56 90/54/55 103/67/75 104/68/77
f 199/168/9 98/62/57 111/75/76
f 92/56/58 91/55/56 104/68/77 105/69/78
f 93/57/59 92/56/58 105/69/78 106/70/79
f 94/58/60 93/57/59 106/70/79 107/71/68
f 87/51/62 86/50/61 99/63/80 100/64/70
f 199/169/9 111/75/76 124/88/81
f 105/69/78 104/68/77 117/81/82 118/82/83
f 106/70/79 105/69/78 118/82/83 119/83/84
f 107/71/68 106/70/79 119/83/84 120/84/85
f 100/64/70 99/63/80 112/76/86 113/77/87
f 108/72/69 107/71/68 120/84/85 121/85/88
f 101/65/71 100/64/70 113/77/87 114/78/89
f 109/73/72 108/72/69 121/85/88 122/86/90
f 102/66/73 101/65/71 114/78/89 115/79/91
f 110/74/74 109/73/72 122/86/90 123/87/92
f 103/67/75 102/66/73 115/79/91 116/80/93
f 111/75/76 110/74/74 123/87/92 124/88/81
f 104/68/77 103/67/75 116/80/93 117/81/82
f 122/86/90 121/85/88 134/98/94 135/99/95
f 115/79/91 114/78/89 127/91/96 128/92/97
f 123/87/92 122/86/90 135/99/95 136/100/98
f 116/80/93 115/79/91 128/92/97 129/93/99
f 124/88/81 123/87/92 136/100/98 137/101/100
f 117/81/82 116/80/93 129/93/99 130/94/101
f 199/170/9 124/88/81 137/101/100
f 118/82/83 117/81/82 130/94/101 131/95/102
f 119/83/84 118/82/83 131/95/102 132/96/103
f 120/84/85 119/83/84 132/96/103 133/97/104
f 113/77/87 112/76/86 125/89/105 126/90/106
f 121/85/88 120/84/85 133/97/104 134/98/94
f 114/78/89 113/77/87 126/90/106 127/91/96
f 132/96/103 131/95/102 144/108/107 145/109/108
f 133/97/104 132/96/103 145/109/108 146/110/109
f 126/90/106 125/89/105 138/102/110 139/103/111
f 134/98/94 133/97/104 146/110/109 147/111/112
f 127/91/96 126/90/106 139/103/111 140/104/113
f 135/99/95 134/98/94 147/111/112 148/112/114
f 128/92/97 127/91/96 140/104/113 141/105/115
f 136/100/98 135/99/95 148/112/114 149/113/116
f 129/93/99 128/92/97 141/105/115 142/106/117
f 137/101/100 136/100/98 149/113/116 150/114/118
f 130/94/101 129/93/99 142/106/117 143/107/119
f 199/171/9 137/101/100 150/114/118
f 131/95/102 130/94/101 143/107/119 144/108/107
f 141/105/115 140/104/113 153/117/120 154/118/121
f 149/113/116 148/112/114 161/125/122 162/126/123
f 142/106/117 141/105/115 154/118/121 155/119/124
f 150/114/118 149/113/116 162/126/123 163/127/125
f 143/107/119 142/106/117 155/119/124 156/120/126
f 199/172/9 150/114/118 163/127/125
f 144/108/107 143/107/119 156/120/126 157/121/127
f 145/109/108 144/108/107 157/121/127 158/122/128
f 146/110/109 145/109/108 158/122/128 159/123/129
f 139/103/111 138/102/110 151/115/130 152/116/131
f 147/111/112 146/110/109 159/123/129 160/124/132
f 140/104/113 139/103/111 152/116/131 153/117/120
f 148/112/114 147/111/112 160/124/132 161/125/122
f 158/122/128 157/121/127 169/133/133 170/134/134
f 159/123/129 158/122/128 170/134/134 171/135/135
f 160/124/132 159/123/129 171/135/135 172/136/136
f 153/117/120 152/116/131 164/128/137 165/129/138
f 161/125/122 160/124/132 172/136/136 173/137/139
f 154/118/121 153/117/120 165/129/138 166/130/140
f 162/126/123 161/125/122 173/137/139 174/138/141
f 155/119/124 154/118/121 166/130/140 167/131/142
f 163/127/125 162/126/123 174/138/141 175/139/143
f 156/120/126 155/119/124 167/131/142 168/132/144
f 199/173/9 163/127/125 175/139/143
f 157/121/127 156/120/126 168/132/144 169/133/133
f 174/138/141 173/137/139 184/148/145 185/149/146
f 167/131/142 166/130/140 177/141/147 178/142/148
f 175/139/143 174/138/141 185/149/146 186/150/149
f 168/132/144 167/131/142 178/142/148 179/143/150
f 199/174/9 175/139/143 186/150/149
f 169/133/133 168/132/144 179/143/150 180/144/151
f 170/134/134 169/133/133 180/144/151 181/145/152
f 171/135/135 170/134/134 181/145/152 182/146/153
f 172/136/136 171/135/135 182/146/153 183/147/154
f 173/137/139 172/136/136 183/147/154 184/148/145
f 166/130/140 165/129/138 176/140/155 177/141/147
f 182/146/153 181/145/152 191/155/156 192/156/157
f 183/147/154 182/146/153 192/156/157 193/157/158
f 184/148/145 183/147/154 193/157/158 194/158/159
f 185/149/146 184/148/145 194/158/159 195/159/160
f 178/142/148 177/141/147 187/151/161 188/152/162
f 186/150/149 185/149/146 195/159/160 196/160/163
f 179/143/150 178/142/148 188/152/162 189/153/164
f 199/175/9 186/150/149 196/160/163
f 180/144/151 179/143/150 189/153/164 190/154/165
f 181/145/152 180/144/151 190/154/165 191/155/156
f 196/160/163 195/159/160 197/161/166 198/162/167
f 199/176/9 196/160/163 198/162/167
