# Blender 3.4.1
# www.blender.org
mtllib areaMotorola.mtl
o NurbsCurve
v -0.750000 0.000000 -0.833333
v -0.713685 0.000000 -0.847211
v -0.676216 0.000000 -0.860272
v -0.637662 0.000000 -0.872517
v -0.598093 0.000000 -0.883946
v -0.557580 0.000000 -0.894558
v -0.516192 0.000000 -0.904354
v -0.474000 0.000000 -0.913333
v -0.431073 0.000000 -0.921497
v -0.387481 0.000000 -0.928844
v -0.343294 0.000000 -0.935374
v -0.298583 0.000000 -0.941088
v -0.253417 0.000000 -0.945986
v -0.207866 0.000000 -0.950068
v -0.162000 0.000000 -0.953333
v -0.115889 0.000000 -0.955782
v -0.069604 0.000000 -0.957415
v -0.023213 0.000000 -0.958231
v 0.023213 0.000000 -0.958231
v 0.069604 0.000000 -0.957415
v 0.115889 0.000000 -0.955782
v 0.162000 0.000000 -0.953333
v 0.207866 0.000000 -0.950068
v 0.253417 0.000000 -0.945986
v 0.298583 0.000000 -0.941089
v 0.343295 0.000000 -0.935374
v 0.387481 0.000000 -0.928844
v 0.431073 0.000000 -0.921497
v 0.474000 0.000000 -0.913333
v 0.516192 0.000000 -0.904354
v 0.557580 0.000000 -0.894558
v 0.598093 0.000000 -0.883946
v 0.637662 0.000000 -0.872517
v 0.676216 0.000000 -0.860272
v 0.713685 0.000000 -0.847211
v 0.750000 0.000000 -0.833333
l 1 2
l 2 3
l 3 4
l 4 5
l 5 6
l 6 7
l 7 8
l 8 9
l 9 10
l 10 11
l 11 12
l 12 13
l 13 14
l 14 15
l 15 16
l 16 17
l 17 18
l 18 19
l 19 20
l 20 21
l 21 22
l 22 23
l 23 24
l 24 25
l 25 26
l 26 27
l 27 28
l 28 29
l 29 30
l 30 31
l 31 32
l 32 33
l 33 34
l 34 35
l 35 36
o Sphere
v 0.740007 3.845609 0.217314
v 0.840105 3.754947 0.147850
v 0.933687 3.642799 0.092124
v 0.998186 3.502641 0.070403
v 1.061843 3.376082 0.038899
v 0.710379 3.968263 0.359487
v 0.825312 3.879278 0.299192
v 0.935929 3.790534 0.238933
v 1.033958 3.677479 0.189748
v 1.116611 3.551130 0.152363
v 1.149237 3.421229 0.141079
v 0.919359 3.340975 0.191447
v 0.638835 4.018270 0.501921
v 0.770317 4.002438 0.438437
v 0.903806 3.931362 0.383069
v 1.026297 3.829956 0.334674
v 1.117853 3.699512 0.300234
v 1.210785 3.581194 0.257367
v 1.260959 3.462946 0.231507
v 1.114830 3.370493 0.304019
v 1.045843 3.207824 0.303905
v 0.676016 4.024838 0.572173
v 0.818357 4.003086 0.530207
v 0.978445 3.994731 0.479573
v 1.103921 3.866179 0.442204
v 1.188750 3.715407 0.416090
v 1.271390 3.589664 0.375506
v 1.284537 3.480211 0.324488
v 1.319984 3.358866 0.309823
v 1.073483 3.136312 0.424553
v 0.701884 4.006951 0.641387
v 0.856386 3.989571 0.621062
v 1.018262 3.988359 0.584592
v 1.134022 3.865213 0.564471
v 1.218675 3.700203 0.538038
v 1.303547 3.568162 0.504669
v 1.220356 3.439810 0.407891
v 1.064614 3.374472 0.399030
v 0.712833 3.976185 0.706722
v 0.870763 3.965075 0.706162
v 1.022743 3.945060 0.687431
v 1.096485 3.803946 0.661110
v 1.230552 3.669366 0.642031
v 1.297976 3.528974 0.625227
v 1.315181 3.387840 0.545841
v 0.931668 3.207938 0.440865
v 0.708542 3.939539 0.764693
v 0.854628 3.898909 0.768843
v 0.990030 3.890731 0.767104
v 1.073835 3.771619 0.746766
v 1.202279 3.642099 0.736744
v 1.218112 3.481334 0.706677
v 1.211004 3.303671 0.715599
v 0.692615 3.919551 0.826943
v 0.831339 3.870111 0.854713
v 0.963641 3.793233 0.870544
v 1.065288 3.699158 0.859239
v 1.138317 3.620308 0.850068
v 1.199302 3.454291 0.823054
v 1.273837 3.242692 0.877340
v 0.664197 3.898594 0.883559
v 0.795564 3.823406 0.913307
v 0.928125 3.670801 0.913665
v 1.028625 3.641163 1.021093
v 1.077715 3.545616 0.952018
v 1.181073 3.402376 0.926700
v 0.622826 3.864717 0.924995
v 0.738845 3.763111 0.944125
v 0.859087 3.679398 0.997978
v 0.940647 3.577235 1.030757
v 1.044080 3.483252 1.019409
v 1.160072 3.337402 1.015322
v 0.675778 3.738597 1.004455
v 0.763430 3.626351 0.999259
v 0.846899 3.508331 1.011126
v 0.942681 3.381147 1.015365
v 0.691838 3.589950 1.073611
v 0.789452 3.476590 1.111656
v 0.883351 3.350654 1.123582
v 0.686729 3.416472 1.133980
v 0.771796 3.284263 1.138099
vn 0.3417 0.7000 -0.6270
vn 0.2778 0.7554 -0.5934
vn 0.2633 0.7478 -0.6094
vn 0.3733 0.6829 -0.6279
vn 0.4383 0.5389 -0.7194
vn 0.4849 0.5698 -0.6635
vn 0.5069 0.3805 -0.7735
vn 0.5442 0.4196 -0.7265
vn 0.5406 0.3319 -0.7730
vn 0.6469 -0.1318 -0.7511
vn 0.5930 0.5875 -0.5506
vn 0.6779 0.4830 -0.5541
vn 0.7017 -0.0807 -0.7079
vn 0.3505 -0.9127 -0.2102
vn 0.3493 -0.6938 -0.6299
vn 0.2200 0.7722 -0.5961
vn 0.1512 0.9083 -0.3901
vn 0.2661 0.7743 -0.5742
vn 0.4713 0.6342 -0.6129
vn 0.0989 0.9904 -0.0961
vn 0.1287 0.9915 0.0177
vn 0.1052 0.9915 -0.0759
vn 0.3607 0.8750 -0.3230
vn 0.6681 0.6196 -0.4121
vn 0.7598 0.5609 -0.3289
vn 0.9065 0.3460 -0.2420
vn 0.9665 -0.1739 -0.1885
vn 0.6397 -0.7021 -0.3128
vn 0.2813 -0.4780 -0.8321
vn 0.8506 0.5238 0.0463
vn 0.9679 0.2316 -0.0980
vn 0.8582 -0.5045 0.0941
vn 0.5234 -0.7053 -0.4781
vn 0.1324 0.9641 0.2302
vn 0.1098 0.9691 0.2208
vn 0.4846 0.8649 0.1308
vn 0.8128 0.5774 0.0765
vn 0.1191 0.8524 0.5092
vn 0.5210 0.7037 0.4831
vn 0.7605 0.5104 0.4015
vn 0.8188 0.4536 0.3519
vn 0.9522 0.1284 0.2771
vn 0.9571 -0.2469 -0.1515
vn 0.4214 -0.6189 -0.6629
vn 0.1158 0.8524 0.5100
vn 0.9148 0.0671 0.3984
vn 0.9911 0.0789 0.1075
vn 0.1884 0.8408 0.5075
vn 0.1791 0.7979 0.5755
vn 0.4712 0.6460 0.6006
vn 0.7057 0.5339 0.4658
vn 0.7980 0.3826 0.4656
vn 0.3697 0.6108 0.7002
vn 0.5990 0.5760 0.5562
vn 0.8048 0.3759 0.4593
vn 0.9458 0.2234 0.2356
vn 0.9824 0.1528 -0.1072
vn 0.2406 0.8435 0.4803
vn 0.2575 0.7341 0.6283
vn 0.2058 0.6330 0.7463
vn 0.2811 0.5645 0.7761
vn 0.2170 0.6539 0.7248
vn 0.4471 0.4766 0.7570
vn 0.7236 0.3047 0.6193
vn 0.7269 0.3972 0.5602
vn 0.1231 0.4787 0.8693
vn 0.0781 0.1946 0.9778
vn 0.4123 0.1578 0.8973
vn 0.6671 0.4454 0.5972
vn 0.1729 0.4798 0.8602
vn 0.2482 0.4940 0.8333
vn 0.1591 0.3936 0.9054
vn 0.1793 0.3628 0.9145
vn 0.2652 0.2978 0.9170
vn 0.3496 0.2575 0.9008
vn 0.4542 0.4217 0.7848
vn 0.3934 0.3451 0.8522
vn 0.5461 0.5615 0.6217
vn 0.0947 0.1271 0.9874
vt 0.718750 0.687500
vt 0.718750 0.625000
vt 0.718750 0.562500
vt 0.718750 0.500000
vt 0.718750 0.437500
vt 0.687500 0.750000
vt 0.687500 0.687500
vt 0.687500 0.625000
vt 0.687500 0.562500
vt 0.687500 0.500000
vt 0.687500 0.437500
vt 0.687500 0.375000
vt 0.656250 0.812500
vt 0.656250 0.750000
vt 0.656250 0.687500
vt 0.656250 0.625000
vt 0.656250 0.562500
vt 0.656250 0.500000
vt 0.656250 0.437500
vt 0.656250 0.375000
vt 0.656250 0.312500
vt 0.625000 0.812500
vt 0.625000 0.750000
vt 0.625000 0.687500
vt 0.625000 0.625000
vt 0.625000 0.562500
vt 0.625000 0.500000
vt 0.625000 0.437500
vt 0.625000 0.375000
vt 0.625000 0.312500
vt 0.593750 0.812500
vt 0.593750 0.750000
vt 0.593750 0.687500
vt 0.593750 0.625000
vt 0.593750 0.562500
vt 0.593750 0.500000
vt 0.593750 0.437500
vt 0.593750 0.375000
vt 0.562500 0.812500
vt 0.562500 0.750000
vt 0.562500 0.687500
vt 0.562500 0.625000
vt 0.562500 0.562500
vt 0.562500 0.500000
vt 0.562500 0.437500
vt 0.562500 0.375000
vt 0.531250 0.812500
vt 0.531250 0.750000
vt 0.531250 0.687500
vt 0.531250 0.625000
vt 0.531250 0.562500
vt 0.531250 0.500000
vt 0.531250 0.437500
vt 0.500000 0.812500
vt 0.500000 0.750000
vt 0.500000 0.687500
vt 0.500000 0.625000
vt 0.500000 0.562500
vt 0.500000 0.500000
vt 0.500000 0.437500
vt 0.468750 0.812500
vt 0.468750 0.750000
vt 0.468750 0.687500
vt 0.468750 0.625000
vt 0.468750 0.562500
vt 0.468750 0.500000
vt 0.437500 0.812500
vt 0.437500 0.750000
vt 0.437500 0.687500
vt 0.437500 0.625000
vt 0.437500 0.562500
vt 0.437500 0.500000
vt 0.406250 0.750000
vt 0.406250 0.687500
vt 0.406250 0.625000
vt 0.406250 0.562500
vt 0.375000 0.687500
vt 0.375000 0.625000
vt 0.375000 0.562500
vt 0.343750 0.625000
vt 0.343750 0.562500
s 1
f 38/2/1 37/1/2 43/7/3 44/8/4
f 39/3/5 38/2/1 44/8/4 45/9/6
f 40/4/7 39/3/5 45/9/6 46/10/8
f 41/5/9 40/4/7 46/10/8 47/11/10
f 46/10/8 45/9/6 53/17/11 54/18/12
f 47/11/10 46/10/8 54/18/12 55/19/13
f 48/12/14 47/11/10 55/19/13 56/20/15
f 43/7/3 42/6/16 50/14/17 51/15/18
f 44/8/4 43/7/3 51/15/18 52/16/19
f 45/9/6 44/8/4 52/16/19 53/17/11
f 50/14/17 49/13/20 58/22/21 59/23/22
f 51/15/18 50/14/17 59/23/22 60/24/23
f 52/16/19 51/15/18 60/24/23 61/25/24
f 53/17/11 52/16/19 61/25/24 62/26/25
f 54/18/12 53/17/11 62/26/25 63/27/26
f 55/19/13 54/18/12 63/27/26 64/28/27
f 56/20/15 55/19/13 64/28/27 65/29/28
f 57/21/29 56/20/15 65/29/28 66/30/29
f 63/27/26 62/26/25 71/35/30 72/36/31
f 64/28/27 63/27/26 72/36/31 73/37/32
f 65/29/28 64/28/27 73/37/32 74/38/33
f 59/23/22 58/22/21 67/31/34 68/32/35
f 60/24/23 59/23/22 68/32/35 69/33/36
f 61/25/24 60/24/23 69/33/36 70/34/37
f 62/26/25 61/25/24 70/34/37 71/35/30
f 69/33/36 68/32/35 76/40/38 77/41/39
f 70/34/37 69/33/36 77/41/39 78/42/40
f 71/35/30 70/34/37 78/42/40 79/43/41
f 72/36/31 71/35/30 79/43/41 80/44/42
f 73/37/32 72/36/31 80/44/42 81/45/43
f 74/38/33 73/37/32 81/45/43 82/46/44
f 68/32/35 67/31/34 75/39/45 76/40/38
f 81/45/43 80/44/42 88/52/46 89/53/47
f 76/40/38 75/39/45 83/47/48 84/48/49
f 77/41/39 76/40/38 84/48/49 85/49/50
f 78/42/40 77/41/39 85/49/50 86/50/51
f 79/43/41 78/42/40 86/50/51 87/51/52
f 80/44/42 79/43/41 87/51/52 88/52/46
f 86/50/51 85/49/50 92/56/53 93/57/54
f 87/51/52 86/50/51 93/57/54 94/58/55
f 88/52/46 87/51/52 94/58/55 95/59/56
f 89/53/47 88/52/46 95/59/56 96/60/57
f 84/48/49 83/47/48 90/54/58 91/55/59
f 85/49/50 84/48/49 91/55/59 92/56/53
f 91/55/59 90/54/58 97/61/60 98/62/61
f 92/56/53 91/55/59 98/62/61 99/63/62
f 93/57/54 92/56/53 99/63/62 100/64/63
f 94/58/55 93/57/54 100/64/63 101/65/64
f 95/59/56 94/58/55 101/65/64 102/66/65
f 100/64/63 99/63/62 105/69/66 106/70/67
f 101/65/64 100/64/63 106/70/67 107/71/68
f 102/66/65 101/65/64 107/71/68 108/72/69
f 98/62/61 97/61/60 103/67/70 104/68/71
f 99/63/62 98/62/61 104/68/71 105/69/66
f 105/69/66 104/68/71 109/73/72 110/74/73
f 106/70/67 105/69/66 110/74/73 111/75/74
f 107/71/68 106/70/67 111/75/74 112/76/75
f 112/76/75 111/75/74 114/78/76 115/79/77
f 111/75/74 110/74/73 113/77/78 114/78/76
f 115/79/77 114/78/76 116/80/79 117/81/79
